<svg width="72" height="19" viewBox="0 0 72 19" fill="none" xmlns="http://www.w3.org/2000/svg">
<path d="M46.6978 8.8068H49.2208V10.472H49.2582C49.3703 10.2118 49.5386 9.95161 49.7628 9.70877C49.9684 9.46593 50.2114 9.27513 50.4917 9.10168C50.7534 8.92822 51.0524 8.8068 51.3701 8.70273C51.6692 8.616 52.0056 8.58131 52.342 8.56396C52.5102 8.56396 52.6971 8.59866 52.9213 8.65069V10.9403C52.7905 10.923 52.641 10.9056 52.4728 10.8883C52.2859 10.8709 52.1177 10.8536 51.9682 10.8536C51.4823 10.8536 51.0711 10.9403 50.7347 11.0791C50.3983 11.2352 50.1179 11.4433 49.9123 11.7035C49.7068 11.9637 49.5572 12.2586 49.4825 12.6055C49.389 12.9524 49.3517 13.334 49.3517 13.7329V17.8149H46.6978V8.8068Z" fill="#10239E"/>
<path d="M43.1235 12.328C42.9927 11.7035 42.7684 11.2352 42.4507 10.9056C42.133 10.5934 41.647 10.4373 41.0116 10.4199C40.5817 10.4199 40.2266 10.4893 39.9463 10.6281C39.666 10.7669 39.4417 10.923 39.2735 11.1138C39.1053 11.3219 38.9931 11.5301 38.9184 11.7382C38.8436 11.9637 38.8062 12.1545 38.8062 12.328H43.1235ZM38.8062 13.8891C38.8436 14.687 39.0492 15.2767 39.4604 15.6236C39.8529 15.9879 40.4322 16.1613 41.1798 16.1613C41.7031 16.1613 42.1704 16.0399 42.5628 15.7971C42.9366 15.5542 43.1796 15.2767 43.273 14.9992H45.6092C45.2354 16.0746 44.6561 16.8551 43.8898 17.3061C43.1048 17.7745 42.1704 18 41.0864 18C40.3201 18 39.6286 17.8959 39.0305 17.6704C38.4138 17.4449 37.8905 17.1153 37.4793 16.699C37.0494 16.2827 36.713 15.7971 36.4888 15.2073C36.2645 14.6349 36.1523 13.9931 36.1523 13.2993C36.1523 12.6402 36.2645 12.0157 36.5074 11.426C36.7317 10.8536 37.0681 10.3506 37.5167 9.93427C37.9465 9.51797 38.4698 9.17106 39.0679 8.92822C39.666 8.68538 40.3388 8.56396 41.0864 8.56396C41.9087 8.56396 42.6189 8.72008 43.2357 9.01495C43.8337 9.30982 44.3383 9.70877 44.7308 10.1944C45.1233 10.6975 45.4036 11.2699 45.5905 11.8943C45.7587 12.5361 45.8148 13.1952 45.7774 13.8891H38.8062Z" fill="#10239E"/>
<path d="M32.8929 17.815H29.9399L26.6489 8.80688H29.4337L31.4708 14.9299H31.5082L33.5453 8.80688H36.1806L32.8929 17.815Z" fill="#10239E"/>
<path d="M23.9902 12.328C23.8594 11.7035 23.6351 11.2352 23.3174 10.9056C22.9997 10.5934 22.5137 10.4373 21.8783 10.4199C21.4484 10.4199 21.0933 10.4893 20.813 10.6281C20.5327 10.7669 20.3084 10.923 20.1402 11.1138C19.972 11.3219 19.8598 11.5301 19.7851 11.7382C19.7103 11.9637 19.6729 12.1545 19.6729 12.328H23.9902ZM19.6729 13.8891C19.7103 14.687 19.9159 15.2767 20.3271 15.6236C20.7196 15.9879 21.2989 16.1613 22.0465 16.1613C22.5698 16.1613 23.0371 16.0399 23.4295 15.7971C23.8033 15.5542 24.0463 15.2767 24.1397 14.9992H26.4759C26.1021 16.0746 25.5227 16.8552 24.7565 17.3061C23.9715 17.7745 23.0371 18 21.9531 18C21.1868 18 20.4953 17.8959 19.8972 17.6704C19.2805 17.4449 18.7572 17.1153 18.346 16.699C17.9161 16.2827 17.5797 15.7971 17.3555 15.2073C17.1312 14.6349 17.019 13.9931 17.019 13.2993C17.019 12.6402 17.1312 12.0157 17.3741 11.426C17.5984 10.8536 17.9348 10.3506 18.3834 9.93427C18.8132 9.51797 19.3365 9.17106 19.9346 8.92822C20.5327 8.68538 21.2055 8.56396 21.9531 8.56396C22.7754 8.56396 23.4856 8.72008 24.1024 9.01495C24.7004 9.30982 25.205 9.70877 25.5975 10.1944C25.99 10.6975 26.2703 11.2699 26.4572 11.8943C26.6254 12.5361 26.6815 13.1952 26.6441 13.8891H19.6729Z" fill="#10239E"/>
<path d="M13.4556 4.97925H16.0721V17.815H13.4556V4.97925Z" fill="#10239E"/>
<path d="M9.49833 9.39529C9.44212 9.08599 9.32971 8.81106 9.16108 8.55332C8.97372 8.29557 8.76762 8.07219 8.50531 7.866C8.243 7.67698 7.94322 7.52234 7.60596 7.41924C7.26871 7.31614 6.93146 7.26459 6.57547 7.24741C5.90096 7.24741 5.33887 7.36769 4.8892 7.60825C4.42079 7.84881 4.04607 8.15811 3.76502 8.55332C3.46524 8.94853 3.25914 9.39529 3.12799 9.8936C2.99683 10.4091 2.94062 10.9246 2.94062 11.4573C2.94062 11.9727 2.99683 12.4882 3.12799 12.9694C3.25914 13.4505 3.46524 13.8972 3.76502 14.2753C4.04607 14.6705 4.42079 14.9798 4.8892 15.2203C5.33887 15.4609 5.90096 15.564 6.57547 15.564C7.47481 15.564 8.16805 15.3234 8.67393 14.8079C9.17981 14.3096 9.49833 13.6395 9.61075 12.8147H12.4587C12.3837 13.5879 12.1776 14.2753 11.8778 14.8939C11.5593 15.5124 11.1471 16.0451 10.6412 16.4747C10.1166 16.9215 9.51707 17.2479 8.84256 17.4713C8.14932 17.7119 7.39987 17.815 6.57547 17.815C5.54497 17.815 4.62689 17.6603 3.80249 17.3338C2.9781 17.0074 2.30359 16.5606 1.7415 15.9764C1.17941 15.4094 0.748476 14.7392 0.448695 13.966C0.148914 13.1927 -0.000976562 12.3508 -0.000976562 11.4573C-0.000976562 10.5466 0.148914 9.70458 0.448695 8.91416C0.748476 8.12374 1.17941 7.43642 1.7415 6.8522C2.30359 6.28516 2.9781 5.82122 3.80249 5.47756C4.62689 5.15108 5.54497 4.99643 6.57547 4.97925C7.30618 4.97925 7.99943 5.08235 8.6552 5.27136C9.31097 5.47756 9.8918 5.75248 10.4164 6.13051C10.941 6.50854 11.372 6.9553 11.7092 7.50515C12.0465 8.05501 12.2526 8.69078 12.3463 9.39529H9.49833Z" fill="#10239E"/>
<path d="M69.1593 6.13904H71.4562V8.62729H69.1593V13.382C69.1593 15.0002 69.259 14.9954 69.4584 15.185C69.6577 15.3746 70.0564 15.4694 70.6545 15.4694C70.8539 15.4931 71.0283 15.4694 71.2276 15.4457C71.4021 15.4457 71.6431 15.3114 71.7677 15.185V17.7918C71.4562 17.9256 71.1031 18.0761 70.7542 18.0761C70.3804 18.0998 70.0315 18.0998 69.6827 18.0998C69.6593 18.0998 69.2647 18.0998 69.0986 18.0761C68.6939 18.0184 68.0921 17.8036 67.7183 17.5903C67.5107 17.4718 66.9707 16.9386 66.9084 16.7017C66.7215 16.4054 66.6176 15.8248 66.6176 15.2087V8.62729H64.4165V6.13904H66.6176V1.99194H69.1593V6.13904Z" fill="#10239E"/>
<path fill-rule="evenodd" clip-rule="evenodd" d="M53.4526 8.6273H55.197V17.8155H57.988V8.6273H60.0563L60.0563 6.13904H57.988L57.988 5.92576C57.988 5.42811 58.0876 4.95552 58.287 4.74224C58.4864 4.52896 58.8352 4.41048 59.3336 4.41048C59.7822 4.41048 60.2058 4.43418 60.6294 4.48157V1.99195L59.6825 1.99194L58.748 1.99195C57.5643 1.99195 56.6298 2.566 56.0692 3.11759C55.3465 3.82852 55.197 4.64609 55.197 5.71248L55.197 6.13904H53.4526L53.4526 8.6273ZM63.6696 9.69369H60.9534V17.8155H63.6696V9.69369Z" fill="#10239E"/>
<path d="M63.6696 7.40689C63.6696 8.12875 63.0832 8.71393 62.3613 8.71393C61.6394 8.71393 61.053 8.12875 61.053 7.40688C61.053 6.68501 61.6394 6.09983 62.3613 6.09983C63.0832 6.09983 63.6696 6.68502 63.6696 7.40689Z" fill="#40A9FF"/>
</svg>
