<svg width="309" height="77" viewBox="0 0 309 77" fill="none" xmlns="http://www.w3.org/2000/svg">
<path d="M200.415 37.1845H211.243V44.2152H211.404C211.885 43.1167 212.607 42.0181 213.569 40.9928C214.452 39.9675 215.494 39.1619 216.697 38.4295C217.82 37.6972 219.104 37.1845 220.467 36.7451C221.751 36.3789 223.194 36.2324 224.638 36.1592C225.36 36.1592 226.162 36.3057 227.125 36.5254V46.1926C226.563 46.1194 225.921 46.0462 225.2 45.9729C224.398 45.8997 223.676 45.8264 223.034 45.8264C220.949 45.8264 219.184 46.1926 217.74 46.7785C216.296 47.4377 215.093 48.3165 214.211 49.4151C213.329 50.5136 212.687 51.7586 212.366 53.2234C211.965 54.6881 211.805 56.2993 211.805 57.9838V75.2188H200.415V37.1845Z" fill="#10239E"/>
<path d="M185.078 52.0516C184.516 49.4151 183.554 47.4377 182.19 46.0462C180.827 44.7279 178.741 44.0688 176.014 43.9955C174.169 43.9955 172.645 44.2885 171.442 44.8744C170.239 45.4603 169.276 46.1194 168.555 46.925C167.833 47.8038 167.351 48.6827 167.031 49.5615C166.71 50.5136 166.549 51.3192 166.549 52.0516H185.078ZM166.549 58.6429C166.71 62.0118 167.592 64.5019 169.357 65.9666C171.041 67.5046 173.528 68.2369 176.736 68.2369C178.982 68.2369 180.987 67.7243 182.671 66.699C184.276 65.6736 185.318 64.5019 185.719 63.3301H195.745C194.141 67.8707 191.655 71.1664 188.366 73.0706C184.997 75.048 180.987 76 176.335 76C173.046 76 170.079 75.5606 167.512 74.6085C164.865 73.6565 162.619 72.265 160.855 70.5073C159.01 68.7496 157.566 66.699 156.603 64.2089C155.641 61.7921 155.16 59.0823 155.16 56.1528C155.16 53.3698 155.641 50.7333 156.684 48.2433C157.646 45.8264 159.09 43.7026 161.015 41.9449C162.86 40.1872 165.106 38.7225 167.672 37.6972C170.239 36.6718 173.126 36.1592 176.335 36.1592C179.864 36.1592 182.912 36.8183 185.559 38.0633C188.126 39.3084 190.291 40.9928 191.976 43.0434C193.66 45.1673 194.863 47.5841 195.665 50.2207C196.387 52.9304 196.628 55.7134 196.467 58.6429H166.549Z" fill="#10239E"/>
<path d="M141.168 75.2189H128.495L114.371 37.1846H126.322L135.065 63.0372H135.225L143.968 37.1846H155.277L141.168 75.2189Z" fill="#10239E"/>
<path d="M102.964 52.0516C102.402 49.4151 101.44 47.4377 100.076 46.0462C98.7125 44.7279 96.6271 44.0688 93.9 43.9955C92.0552 43.9955 90.5312 44.2885 89.3281 44.8744C88.1249 45.4603 87.1624 46.1194 86.4405 46.925C85.7187 47.8038 85.2374 48.6827 84.9166 49.5615C84.5957 50.5136 84.4353 51.3192 84.4353 52.0516H102.964ZM84.4353 58.6429C84.5957 62.0118 85.478 64.5019 87.2426 65.9666C88.927 67.5046 91.4135 68.2369 94.6219 68.2369C96.8677 68.2369 98.8729 67.7243 100.557 66.699C102.162 65.6736 103.204 64.5019 103.605 63.3301H113.631C112.027 67.8707 109.541 71.1664 106.252 73.0706C102.883 75.048 98.8729 76 94.2208 76C90.9322 76 87.9645 75.5606 85.3978 74.6085C82.7509 73.6565 80.5051 72.265 78.7405 70.5073C76.8957 68.7496 75.4519 66.699 74.4894 64.2089C73.5269 61.7921 73.0457 59.0823 73.0457 56.1528C73.0457 53.3698 73.5269 50.7333 74.5696 48.2433C75.5321 45.8264 76.9759 43.7026 78.9009 41.9449C80.7457 40.1872 82.9916 38.7225 85.5582 37.6972C88.1249 36.6718 91.0125 36.1592 94.2208 36.1592C97.75 36.1592 100.798 36.8183 103.445 38.0633C106.012 39.3084 108.177 40.9928 109.862 43.0434C111.546 45.1673 112.749 47.5841 113.551 50.2207C114.273 52.9304 114.514 55.7134 114.353 58.6429H84.4353Z" fill="#10239E"/>
<path d="M57.7505 21.0234H68.9797V75.2187H57.7505V21.0234Z" fill="#10239E"/>
<path d="M40.7679 39.6689C40.5266 38.363 40.0442 37.2022 39.3205 36.114C38.5164 35.0257 37.6319 34.0825 36.5061 33.2119C35.3804 32.4139 34.0938 31.7609 32.6465 31.3256C31.1991 30.8903 29.7517 30.6727 28.2239 30.6001C25.3291 30.6001 22.9168 31.108 20.987 32.1237C18.9768 33.1394 17.3686 34.4453 16.1624 36.114C14.8758 37.7826 13.9913 39.6689 13.4285 41.7729C12.8656 43.9494 12.6244 46.1259 12.6244 48.375C12.6244 50.5515 12.8656 52.728 13.4285 54.7595C13.9913 56.7909 14.8758 58.6772 16.1624 60.2733C17.3686 61.942 18.9768 63.2479 20.987 64.2636C22.9168 65.2793 25.3291 65.7146 28.2239 65.7146C32.0836 65.7146 35.0588 64.6989 37.2298 62.5224C39.4009 60.4184 40.7679 57.5889 41.2503 54.1065H53.4726C53.151 57.3713 52.2665 60.2733 50.9799 62.8851C49.613 65.4969 47.8439 67.746 45.6729 69.5598C43.4214 71.4461 40.8483 72.8246 37.9535 73.7677C34.9783 74.7834 31.7619 75.2187 28.2239 75.2187C23.8014 75.2187 19.8613 74.5658 16.3232 73.1873C12.7852 71.8088 9.89043 69.9225 7.47813 67.4558C5.06583 65.0616 3.2164 62.2322 1.92984 58.9674C0.64328 55.7026 0 52.1476 0 48.375C0 44.5298 0.64328 40.9748 1.92984 37.6375C3.2164 34.3002 5.06583 31.3982 7.47813 28.9314C9.89043 26.5373 12.7852 24.5784 16.3232 23.1274C19.8613 21.7489 23.8014 21.096 28.2239 21.0234C31.3599 21.0234 34.3351 21.4587 37.1494 22.2568C39.9638 23.1274 42.4565 24.2882 44.708 25.8843C46.9594 27.4804 48.8089 29.3667 50.2562 31.6884C51.7036 34.01 52.5881 36.6944 52.9902 39.6689H40.7679Z" fill="#10239E"/>
<path d="M296.808 25.9191H306.665V36.4251H296.808V56.5005C296.808 63.3331 297.236 63.3128 298.091 64.1133C298.947 64.9137 300.658 65.3139 303.225 65.3139C304.08 65.414 304.829 65.3139 305.685 65.2139C306.433 65.2139 307.468 64.6471 308.002 64.1133V75.1195C306.665 75.6844 305.15 76.3202 303.653 76.3202C302.048 76.4202 300.551 76.4202 299.054 76.4202C298.954 76.4202 297.26 76.4202 296.547 76.3202C294.811 76.0765 292.228 75.1695 290.624 74.269C289.732 73.7688 287.415 71.5175 287.148 70.5169C286.346 69.2662 285.9 66.8148 285.9 64.2133V36.4251H276.453V25.9191H285.9V8.40918H296.808V25.9191Z" fill="#10239E"/>
<path fill-rule="evenodd" clip-rule="evenodd" d="M229.397 36.4251H236.884V75.2196H248.862V36.4251H257.738L257.738 25.9191H248.862L248.862 25.0186C248.862 22.9174 249.289 20.9221 250.145 20.0216C251.001 19.121 252.498 18.6208 254.637 18.6208C256.562 18.6208 258.38 18.7208 260.198 18.9209V8.40919L256.134 8.40918L252.123 8.40919C247.043 8.40919 243.033 10.833 240.627 13.1619C237.525 16.1636 236.884 19.6156 236.884 24.1181L236.884 25.9191H229.397L229.397 36.4251ZM273.245 40.9277H261.588V75.2196H273.245V40.9277Z" fill="#10239E"/>
<path d="M273.245 31.2723C273.245 34.3201 270.774 36.7909 267.726 36.7909H267.535C264.487 36.7909 262.016 34.3201 262.016 31.2722C262.016 28.2244 264.487 25.7536 267.534 25.7536H267.726C270.774 25.7536 273.245 28.2244 273.245 31.2723Z" fill="#40A9FF"/>
</svg>
