<svg width="81" height="80" viewBox="0 0 81 80" fill="none" xmlns="http://www.w3.org/2000/svg">
<path d="M39.9443 4.44446C20.6162 4.44446 4.94434 20.1163 4.94434 39.4445C4.94434 58.7726 20.6162 74.4445 39.9443 74.4445C59.2725 74.4445 74.9443 58.7726 74.9443 39.4445C74.9443 20.1163 59.2725 4.44446 39.9443 4.44446ZM52.8662 52.7413L47.71 52.7179L39.9443 43.4601L32.1865 52.7101L27.0225 52.7335C26.6787 52.7335 26.3975 52.4601 26.3975 52.1085C26.3975 51.9601 26.4521 51.8195 26.5459 51.7023L36.71 39.5929L26.5459 27.4913C26.4515 27.3768 26.3991 27.2335 26.3975 27.0851C26.3975 26.7413 26.6787 26.4601 27.0225 26.4601L32.1865 26.4835L39.9443 35.7413L47.7021 26.4913L52.8584 26.4679C53.2021 26.4679 53.4834 26.7413 53.4834 27.0929C53.4834 27.2413 53.4287 27.382 53.335 27.4991L43.1865 39.6007L53.3428 51.7101C53.4365 51.8273 53.4912 51.9679 53.4912 52.1163C53.4912 52.4601 53.21 52.7413 52.8662 52.7413Z" fill="#FF4D4F"/>
</svg>
