<svg width="133" height="34" viewBox="0 0 133 34" fill="none" xmlns="http://www.w3.org/2000/svg">
<path d="M86.2627 16.1459H90.9234V19.1987H90.9924C91.1996 18.7217 91.5103 18.2447 91.9246 17.7995C92.3043 17.3543 92.7531 17.0045 93.271 16.6865C93.7543 16.3685 94.3067 16.1459 94.8936 15.9551C95.446 15.7961 96.0674 15.7325 96.6888 15.7007C96.9995 15.7007 97.3448 15.7643 97.7591 15.8597V20.0573C97.5174 20.0255 97.2412 19.9937 96.9305 19.9619C96.5853 19.9301 96.2745 19.8983 95.9984 19.8983C95.1007 19.8983 94.3412 20.0573 93.7198 20.3117C93.0984 20.5979 92.5805 20.9795 92.2008 21.4565C91.821 21.9335 91.5448 22.4741 91.4067 23.1101C91.2341 23.7461 91.165 24.4457 91.165 25.1771V32.6608H86.2627V16.1459Z" fill="#10239E"/>
<path d="M79.6615 22.6013C79.4198 21.4565 79.0055 20.5979 78.4186 19.9937C77.8317 19.4213 76.9341 19.1351 75.7603 19.1033C74.9663 19.1033 74.3103 19.2305 73.7925 19.4849C73.2746 19.7393 72.8603 20.0255 72.5496 20.3753C72.2389 20.7569 72.0318 21.1385 71.8937 21.5201C71.7556 21.9335 71.6865 22.2833 71.6865 22.6013H79.6615ZM71.6865 25.4633C71.7556 26.9261 72.1353 28.0073 72.8949 28.6433C73.6199 29.3112 74.6901 29.6292 76.071 29.6292C77.0377 29.6292 77.9008 29.4066 78.6258 28.9613C79.3162 28.5161 79.7651 28.0073 79.9377 27.4985H84.2531C83.5627 29.4702 82.4924 30.9012 81.077 31.728C79.627 32.5866 77.9008 33 75.8984 33C74.4829 33 73.2056 32.8092 72.1008 32.3958C70.9615 31.9824 69.9949 31.3782 69.2354 30.615C68.4413 29.8518 67.8199 28.9613 67.4056 27.8801C66.9913 26.8307 66.7842 25.6541 66.7842 24.3821C66.7842 23.1737 66.9913 22.0289 67.4401 20.9477C67.8544 19.8983 68.4758 18.9761 69.3044 18.2129C70.0984 17.4497 71.0651 16.8137 72.1699 16.3685C73.2746 15.9233 74.5175 15.7007 75.8984 15.7007C77.4175 15.7007 78.7293 15.9869 79.8686 16.5275C80.9734 17.0681 81.9055 17.7995 82.6305 18.6899C83.3555 19.6121 83.8734 20.6615 84.2186 21.8063C84.5293 22.9829 84.6329 24.1913 84.5638 25.4633H71.6865Z" fill="#10239E"/>
<path d="M60.7615 32.6608H55.3068L49.2275 16.1459H54.3716L58.1346 27.3714H58.2037L61.9667 16.1459H66.8346L60.7615 32.6608Z" fill="#10239E"/>
<path d="M44.3177 22.6013C44.0761 21.4565 43.6618 20.5979 43.0749 19.9937C42.488 19.4213 41.5904 19.1351 40.4166 19.1033C39.6225 19.1033 38.9666 19.2305 38.4487 19.4849C37.9309 19.7393 37.5166 20.0255 37.2059 20.3753C36.8952 20.7569 36.688 21.1385 36.5499 21.5201C36.4118 21.9335 36.3428 22.2833 36.3428 22.6013H44.3177ZM36.3428 25.4633C36.4118 26.9261 36.7916 28.0073 37.5511 28.6433C38.2761 29.3112 39.3463 29.6292 40.7273 29.6292C41.6939 29.6292 42.557 29.4066 43.282 28.9613C43.9725 28.5161 44.4213 28.0073 44.5939 27.4985H48.9094C48.2189 29.4702 47.1487 30.9012 45.7332 31.728C44.2832 32.5866 42.557 33 40.5547 33C39.1392 33 37.8618 32.8092 36.7571 32.3958C35.6178 31.9824 34.6511 31.3782 33.8916 30.615C33.0976 29.8518 32.4761 28.9613 32.0619 27.8801C31.6476 26.8307 31.4404 25.6541 31.4404 24.3821C31.4404 23.1737 31.6476 22.0289 32.0964 20.9477C32.5107 19.8983 33.1321 18.9761 33.9607 18.2129C34.7547 17.4497 35.7214 16.8137 36.8261 16.3685C37.9309 15.9233 39.1737 15.7007 40.5547 15.7007C42.0737 15.7007 43.3856 15.9869 44.5249 16.5275C45.6296 17.0681 46.5618 17.7995 47.2868 18.6899C48.0118 19.6121 48.5296 20.6615 48.8748 21.8063C49.1856 22.9829 49.2891 24.1913 49.2201 25.4633H36.3428Z" fill="#10239E"/>
<path d="M24.8569 9.12863H29.6902V32.6608H24.8569V9.12863Z" fill="#10239E"/>
<path d="M17.5473 17.2247C17.4435 16.6577 17.2358 16.1536 16.9243 15.6811C16.5782 15.2086 16.1975 14.799 15.713 14.421C15.2285 14.0745 14.6747 13.791 14.0517 13.6019C13.4287 13.4129 12.8057 13.3184 12.1482 13.2869C10.9022 13.2869 9.86388 13.5074 9.03324 13.9485C8.16799 14.3895 7.47579 14.9565 6.95663 15.6811C6.40287 16.4056 6.02216 17.2247 5.77989 18.1383C5.53762 19.0833 5.43379 20.0284 5.43379 21.005C5.43379 21.95 5.53762 22.8951 5.77989 23.7772C6.02216 24.6592 6.40287 25.4783 6.95663 26.1713C7.47579 26.8959 8.16799 27.4629 9.03324 27.904C9.86388 28.345 10.9022 28.534 12.1482 28.534C13.8094 28.534 15.09 28.093 16.0245 27.1479C16.959 26.2343 17.5473 25.0058 17.755 23.4936H23.0157C22.8773 24.9112 22.4966 26.1713 21.9428 27.3054C21.3544 28.4395 20.593 29.4161 19.6585 30.2036C18.6895 31.0227 17.5819 31.6212 16.336 32.0308C15.0554 32.4718 13.671 32.6608 12.1482 32.6608C10.2446 32.6608 8.5487 32.3773 7.02585 31.7787C5.50301 31.1802 4.25704 30.3611 3.21874 29.2901C2.18044 28.2505 1.3844 27.0219 0.830643 25.6043C0.276881 24.1867 0 22.6431 0 21.005C0 19.3354 0.276881 17.7917 0.830643 16.3426C1.3844 14.8935 2.18044 13.6335 3.21874 12.5624C4.25704 11.5228 5.50301 10.6722 7.02585 10.0422C8.5487 9.44365 10.2446 9.16013 12.1482 9.12863C13.4979 9.12863 14.7785 9.31764 15.9899 9.66417C17.2012 10.0422 18.2741 10.5462 19.2432 11.2393C20.2123 11.9323 21.0083 12.7514 21.6313 13.7595C22.2543 14.7675 22.635 15.9331 22.8081 17.2247H17.5473Z" fill="#10239E"/>
<path d="M127.753 11.2545H131.996V15.8163H127.753V24.5332C127.753 27.5 127.937 27.4912 128.305 27.8388C128.673 28.1863 129.41 28.3601 130.515 28.3601C130.883 28.4036 131.205 28.3601 131.573 28.3167C131.896 28.3167 132.341 28.0706 132.571 27.8388V32.6178C131.996 32.8631 131.343 33.1392 130.699 33.1392C130.008 33.1826 129.364 33.1826 128.719 33.1826C128.676 33.1826 127.947 33.1826 127.641 33.1392C126.893 33.0333 125.781 32.6395 125.091 32.2485C124.707 32.0313 123.71 31.0538 123.595 30.6193C123.25 30.0762 123.058 29.0118 123.058 27.8822V15.8163H118.992V11.2545H123.058V3.65149H127.753V11.2545Z" fill="#10239E"/>
<path fill-rule="evenodd" clip-rule="evenodd" d="M98.7378 15.8163H101.96V32.6613H107.116V15.8163H110.936L110.936 11.2545H107.116L107.116 10.8635C107.116 9.95113 107.3 9.08472 107.668 8.69371C108.036 8.3027 108.681 8.08547 109.601 8.08547C110.43 8.08547 111.212 8.12891 111.995 8.2158V3.65149L110.246 3.65149L108.52 3.65149C106.333 3.65149 104.607 4.70393 103.571 5.71517C102.236 7.01854 101.96 8.51742 101.96 10.4725L101.96 11.2545H98.7378L98.7378 15.8163ZM117.611 17.7714H112.593V32.6613H117.611V17.7714Z" fill="#10239E"/>
<path d="M117.611 13.5789C117.611 14.9023 116.517 15.9751 115.194 15.9751C113.871 15.9751 112.777 14.9023 112.777 13.5789C112.777 12.2555 113.871 11.1826 115.194 11.1826C116.517 11.1826 117.611 12.2555 117.611 13.5789Z" fill="#40A9FF"/>
</svg>
