<svg width="81" height="80" viewBox="0 0 81 80" fill="none" xmlns="http://www.w3.org/2000/svg">
<path d="M75.1637 66.875L42.6637 10.625C42.1793 9.78906 41.3434 9.375 40.4997 9.375C39.6559 9.375 38.8122 9.78906 38.3356 10.625L5.8356 66.875C4.87466 68.5469 6.07779 70.625 7.99966 70.625H72.9997C74.9215 70.625 76.1247 68.5469 75.1637 66.875ZM37.9997 32.5C37.9997 32.1562 38.2809 31.875 38.6247 31.875H42.3747C42.7184 31.875 42.9997 32.1562 42.9997 32.5V46.875C42.9997 47.2188 42.7184 47.5 42.3747 47.5H38.6247C38.2809 47.5 37.9997 47.2188 37.9997 46.875V32.5ZM40.4997 60C39.5183 59.98 38.584 59.5761 37.8971 58.875C37.2102 58.1739 36.8254 57.2315 36.8254 56.25C36.8254 55.2685 37.2102 54.3261 37.8971 53.625C38.584 52.9239 39.5183 52.52 40.4997 52.5C41.481 52.52 42.4153 52.9239 43.1022 53.625C43.7892 54.3261 44.1739 55.2685 44.1739 56.25C44.1739 57.2315 43.7892 58.1739 43.1022 58.875C42.4153 59.5761 41.481 59.98 40.4997 60Z" fill="#FAAD14"/>
</svg>
